<?xml version="1.0" standalone="no"?>
<!DOCTYPE svg PUBLIC "-//W3C//DTD SVG 20010904//EN"
 "http://www.w3.org/TR/2001/REC-SVG-20010904/DTD/svg10.dtd">
<svg version="1.0" xmlns="http://www.w3.org/2000/svg"
 width="587.000000pt" height="587.000000pt" viewBox="0 0 587.000000 587.000000"
 preserveAspectRatio="xMidYMid meet">
<metadata>
Created by potrace 1.14, written by Peter Selinger 2001-2017
</metadata>
<g transform="translate(0.000000,587.000000) scale(0.100000,-0.100000)"
fill="#000000" stroke="none">
<path d="M726 5859 c-358 -46 -647 -347 -686 -715 -7 -67 -10 -795 -8 -2284
l3 -2185 22 -79 c77 -268 262 -467 520 -560 l88 -31 2275 0 2275 0 88 31 c254
91 451 301 514 549 17 66 18 192 18 2360 l0 2290 -31 87 c-105 293 -360 500
-664 537 -105 14 -4312 13 -4414 0z m3585 -215 c23 -25 24 -31 24 -171 l0
-145 -28 -24 c-38 -32 -72 -31 -108 5 l-29 29 0 140 c0 126 2 142 21 166 28
36 86 36 120 0z m-2588 -237 c62 -36 106 -83 131 -137 30 -64 29 -196 -1 -262
-28 -62 -91 -128 -150 -158 -48 -25 -49 -25 -390 -28 -380 -3 -385 -2 -423 61
-39 64 -16 136 53 168 35 15 66 19 188 19 l146 0 5 74 c8 128 79 234 184 276
73 30 194 24 257 -13z m1799 -54 c28 -27 82 -83 119 -126 57 -64 69 -83 69
-112 0 -57 -62 -101 -108 -76 -38 20 -242 249 -242 271 0 26 18 61 39 77 33
25 70 15 123 -34z m1589 34 c21 -16 39 -51 39 -75 0 -23 -210 -254 -245 -270
-39 -18 -63 -15 -90 13 -17 16 -25 35 -25 57 0 30 15 50 124 161 102 104 130
127 153 127 15 0 35 -6 44 -13z m-656 -322 c263 -105 418 -371 376 -644 -18
-116 -62 -214 -142 -321 -117 -155 -123 -170 -127 -329 -3 -144 -12 -183 -46
-206 -27 -20 -502 -22 -526 -2 -41 33 -45 48 -51 196 -5 139 -7 149 -36 207
-18 34 -43 74 -56 90 -185 221 -226 489 -111 723 46 93 161 212 250 259 98 51
154 62 284 59 98 -3 125 -8 185 -32z m-1984 -166 c31 -14 68 -42 99 -76 201
-220 -11 -573 -300 -499 -230 59 -313 330 -154 505 86 96 229 124 355 70z
m1000 -447 c37 -41 37 -66 0 -103 l-29 -29 -135 0 c-131 0 -136 1 -166 26 -39
32 -42 80 -8 111 34 31 42 32 180 30 l129 -2 29 -33z m1903 9 c35 -33 35 -83
1 -116 -23 -24 -29 -25 -159 -25 -130 0 -135 1 -165 26 -47 39 -39 97 17 129
21 12 55 14 154 13 118 -3 128 -5 152 -27z m-4267 -33 c183 -79 250 -279 150
-446 -40 -67 -89 -106 -168 -133 -147 -49 -305 23 -372 170 -31 67 -30 189 2
251 46 89 124 151 214 170 50 11 135 5 174 -12z m1288 -492 c90 -38 98 -164
12 -216 -28 -18 -51 -20 -198 -20 l-167 0 -1 -77 c-3 -178 -119 -297 -286
-297 -148 1 -266 102 -295 255 -20 104 29 235 112 302 77 62 109 66 466 67
256 0 330 -3 357 -14z m2126 -625 c37 -38 39 -88 5 -128 l-24 -28 -251 0
c-247 0 -251 0 -273 23 -35 35 -32 106 5 138 28 24 29 24 268 24 l241 0 29
-29z m-1167 -516 c5 -22 9 -137 10 -255 0 -247 -11 -308 -86 -460 -43 -89
-134 -192 -198 -225 l-30 -16 0 194 c0 180 -1 196 -22 237 -18 36 -32 48 -63
59 -36 12 -45 12 -77 -3 -62 -30 -68 -56 -68 -284 0 -120 -4 -203 -10 -207
-14 -9 -109 55 -151 102 -102 114 -141 256 -105 389 45 169 202 332 406 420
85 36 305 94 350 91 31 -2 35 -6 44 -42z m-2020 -401 c213 -29 402 -82 582
-161 324 -141 630 -409 766 -668 86 -166 138 -391 138 -605 l0 -113 -161 166
c-219 227 -378 358 -669 554 -185 123 -408 254 -444 260 -96 15 -151 -112 -78
-179 15 -14 133 -92 262 -174 264 -168 380 -251 531 -382 120 -104 310 -295
394 -396 75 -90 156 -215 148 -229 -9 -14 -351 -2 -483 18 -495 73 -917 353
-1217 809 -141 214 -282 550 -363 866 -46 180 -49 214 -19 231 58 30 403 32
613 3z m3683 16 c62 -5 121 -14 133 -20 26 -14 25 -35 -5 -178 -63 -292 -232
-699 -386 -930 -136 -201 -324 -397 -500 -518 -302 -209 -633 -303 -1061 -304
-111 0 -138 3 -138 14 0 47 286 385 445 525 235 208 381 315 738 537 59 37
127 84 150 104 36 32 42 43 42 79 0 51 -43 99 -95 107 -30 5 -51 -4 -155 -67
-176 -106 -395 -250 -520 -344 -161 -120 -270 -216 -454 -398 l-163 -162 5
175 c6 189 18 256 77 408 145 377 548 717 1030 870 289 91 576 126 857 102z"/>
</g>
</svg>
